<svg xmlns="http://www.w3.org/2000/svg" width="100" height="100" fill-rule="evenodd" clip-rule="evenodd" image-rendering="optimizeQuality" shape-rendering="geometricPrecision" text-rendering="geometricPrecision" viewBox="0 0 384 384" id="twitter">
  <rect width="384" height="384" fill="#4ebeed" rx="37" ry="37"></rect>
  <path fill="#fefefe" d="M313 118c-9 4-19 6-29 8 11-7 19-16 22-28-9 6-20 10-31 12-9-9-22-15-37-15-27 0-49 22-49 49 0 4 0 7 1 11-41-2-78-22-102-51-5 7-7 15-7 24 0 17 9 32 22 41-8 0-16-2-23-6v1c0 6 2 12 4 17 6 16 20 27 36 31-4 1-8 1-13 1-3 0-6 0-9-1 6 20 25 34 46 34-17 14-38 21-61 21H71c22 14 48 22 76 22 78 0 125-54 138-110 2-10 3-20 3-30v-6c10-7 18-15 25-25z"></path>
</svg>
